<?xml version="1.0" encoding="UTF-8" standalone="no"?>
<!-- Created with Inkscape (http://www.inkscape.org/) -->

<svg
   width="150.4727mm"
   height="57.54953mm"
   viewBox="0 0 150.4727 57.54953"
   version="1.1"
   id="svg1"
   inkscape:version="1.3 (0e150ed6c4, 2023-07-21)"
   sodipodi:docname="_logo.svg"
   xmlns:inkscape="http://www.inkscape.org/namespaces/inkscape"
   xmlns:sodipodi="http://sodipodi.sourceforge.net/DTD/sodipodi-0.dtd"
   xmlns="http://www.w3.org/2000/svg"
   xmlns:svg="http://www.w3.org/2000/svg">
  <sodipodi:namedview
     id="namedview1"
     pagecolor="#ffffff"
     bordercolor="#000000"
     borderopacity="0.25"
     inkscape:showpageshadow="2"
     inkscape:pageopacity="0.0"
     inkscape:pagecheckerboard="0"
     inkscape:deskcolor="#d1d1d1"
     inkscape:document-units="mm"
     showguides="false"
     inkscape:zoom="1.3418082"
     inkscape:cx="345.05676"
     inkscape:cy="152.40628"
     inkscape:window-width="1900"
     inkscape:window-height="997"
     inkscape:window-x="10"
     inkscape:window-y="44"
     inkscape:window-maximized="1"
     inkscape:current-layer="layer1" />
  <defs
     id="defs1" />
  <g
     inkscape:label="Layer 1"
     inkscape:groupmode="layer"
     id="layer1"
     transform="translate(-57.952736,-100.31033)">
    <path
       style="fill:#ed254e;fill-opacity:1;stroke:#ed254e;stroke-width:0.98651;stroke-dasharray:none;stroke-opacity:1"
       d="m 195.46078,101.23109 v 26.69248 c 0,10.49549 12.4714,10.15898 12.4714,0 0,-12.71028 -3.58254,-20.77691 -12.4714,-26.69248 z"
       id="path2"
       sodipodi:nodetypes="cccc" />
    <circle
       style="fill:#ed254e;fill-opacity:1;stroke:#ed254e;stroke-width:1;stroke-dasharray:none;stroke-opacity:1"
       id="path3"
       cx="200.82465"
       cy="151.06895"
       r="6.2868991" />
    <path
       id="rect3"
       style="fill:#ed254e;fill-opacity:1;stroke:#ed254e;stroke-width:1;stroke-dasharray:none;stroke-opacity:1"
       d="m 171.48089,144.67776 h 7.68065 c 1.93876,0 3.49956,1.5608 3.49956,3.49956 v 5.68065 c 0,1.93876 -1.5608,3.49956 -3.49956,3.49956 h -7.68065 c -1.93876,0 -3.49957,-2.93936 -3.49957,-4.87812 v -2.28252 c 0,-1.93876 1.56081,-5.51913 3.49957,-5.51913 z"
       sodipodi:nodetypes="sssssssss" />
    <rect
       style="fill:#fdfdfd;fill-opacity:0.99891597;stroke:#ffffff;stroke-width:1;stroke-dasharray:none;stroke-opacity:1"
       id="rect3-5"
       width="14.684418"
       height="12.681862"
       x="147.29308"
       y="144.67799"
       ry="3.862608" />
    <path
       style="fill:#fdfdfd;fill-opacity:0.99891597;stroke:#ffffff;stroke-width:1;stroke-dasharray:none;stroke-opacity:1"
       d="m 136.55788,157.34263 c 3.15069,-0.22975 4.83368,-2.59883 4.70995,-4.11846 v -4.55536 c -0.001,-1.2833 -1.85426,-3.78185 -5.04731,-3.77714 H 90.363307 c -1.950919,0.0113 -4.681533,1.60828 -4.739422,4.00294 v 3.15771 c 0,3.71767 15.505965,5.25382 19.494565,5.25382 z"
       id="path4"
       sodipodi:nodetypes="ccccccccc" />
    <path
       id="rect3-7"
       style="fill:#fdfdfd;fill-opacity:0.99891597;stroke:#ffffff;stroke-width:1;stroke-dasharray:none;stroke-opacity:1"
       d="m 171.48088,122.86065 h 5.97013 c 1.93875,0 5.21009,3.03938 5.21009,4.97814 v 4.20208 c 0,1.93876 -1.56081,3.49956 -3.49956,3.49956 h -5.20986 c -1.93876,0 -5.97036,-3.08633 -5.97036,-5.02509 v -4.15512 c 0,-1.93876 1.5608,-3.49957 3.49956,-3.49957 z"
       sodipodi:nodetypes="sssssssss" />
    <path
       id="rect3-7-2"
       style="fill:#ed254e;fill-opacity:1;stroke:#ed254e;stroke-width:1;stroke-dasharray:none;stroke-opacity:1"
       d="m 150.79495,122.86065 h 5.97013 c 1.93875,0 5.21009,3.03938 5.21009,4.97814 v 4.20208 c 0,1.93876 -1.56081,3.49956 -3.49956,3.49956 h -5.20986 c -1.93876,0 -5.97036,-3.08633 -5.97036,-5.02509 v -4.15512 c 0,-1.93876 1.5608,-3.49957 3.49956,-3.49957 z"
       sodipodi:nodetypes="sssssssss" />
    <rect
       style="fill:#fdfdfd;fill-opacity:0.99891597;stroke:#ffffff;stroke-width:1;stroke-dasharray:none;stroke-opacity:1"
       id="rect3-5-0-0"
       width="14.684418"
       height="12.681862"
       x="126.60713"
       y="122.85857"
       ry="3.862608" />
    <path
       id="rect14"
       style="fill:#fdfdfd;fill-opacity:0.99891597;stroke:#ffffff;stroke-width:1.00815;stroke-dasharray:none;stroke-opacity:1"
       d="m 58.456838,122.86264 v 12.67384 h 53.798692 c 3.45315,0 6.23288,-2.82653 6.23288,-6.33718 0,-3.51066 -2.77973,-6.33666 -6.23288,-6.33666 z" />
    <rect
       style="fill:#fdfdfd;fill-opacity:0.99891597;stroke:#ffffff;stroke-width:1;stroke-dasharray:none;stroke-opacity:1"
       id="rect3-7-1"
       width="14.679778"
       height="12.679778"
       x="167.98132"
       y="101.04354"
       ry="2.3290861" />
    <rect
       style="fill:#fdfdfd;fill-opacity:0.99891597;stroke:#ffffff;stroke-width:1;stroke-dasharray:none;stroke-opacity:1"
       id="rect3-5-0-8"
       width="14.684418"
       height="12.681862"
       x="147.29308"
       y="101.0438"
       ry="2.6185102" />
    <rect
       style="fill:#fdfdfd;fill-opacity:0.99891597;stroke:#ffffff;stroke-width:1;stroke-dasharray:none;stroke-opacity:1"
       id="rect3-5-0-0-7"
       width="14.684418"
       height="12.681862"
       x="126.60713"
       y="101.0438"
       ry="3.862608" />
    <path
       id="rect14-9"
       style="fill:#fdfdfd;fill-opacity:0.99891597;stroke:#ffffff;stroke-width:1.00815;stroke-dasharray:none;stroke-opacity:1"
       d="m 58.456813,101.04788 v 12.67384 h 53.798717 c 3.45315,0 6.23288,-2.82653 6.23288,-6.33718 0,-3.51066 -2.77973,-6.33666 -6.23288,-6.33666 z" />
  </g>
</svg>
